# Blender 5.1.1
# www.blender.org
mtllib bodygg.mtl
o Cube
v 0.141312 -0.190456 0.208459
v 0.380905 1.207780 0.123744
v 0.312400 0.070592 -0.121309
v 0.394058 1.243915 -0.286433
v 0.000000 0.093546 -0.257747
v 0.000000 1.243915 -0.286433
v 0.000000 -0.245974 0.197611
v 0.000000 1.208832 0.116191
v 0.376467 0.877518 -0.309597
v 0.253313 0.486211 -0.121915
v 0.325298 0.885948 0.299918
v 0.265694 0.530045 0.270132
v 0.000000 0.886980 0.341859
v 0.000000 0.530045 0.270132
v 0.000000 0.857637 -0.332078
v 0.000000 0.474619 -0.120156
v 0.354619 0.066140 0.092437
v 0.506713 1.261128 -0.001818
v 0.316839 0.493343 0.073922
v 0.455243 0.902238 0.033626
v 0.000000 -0.314462 0.035239
v 0.067816 -0.311828 0.014256
v 0.215774 -0.098594 -0.239859
v 0.000000 -0.111208 -0.273567
v 0.113001 -0.225594 -0.205675
v 0.000000 -0.193902 -0.211000
v 0.302570 -0.564887 0.239591
v 0.549756 -0.475062 -0.093834
v 0.535019 -0.477598 0.083114
v 0.176598 -0.599199 0.010471
v 0.467502 -0.494911 -0.216281
v 0.260420 -0.566433 -0.192839
v 0.456688 -1.138943 0.073392
v 0.590956 -1.134736 -0.135439
v 0.580810 -1.140970 -0.041490
v 0.390788 -1.160612 -0.083033
v 0.542146 -1.132297 -0.198804
v 0.433801 -1.146945 -0.186613
v 0.508430 -1.538977 0.001035
v 0.745018 -1.498961 -0.160371
v 0.729402 -1.502430 -0.013034
v 0.392628 -1.539801 -0.072907
v 0.663430 -1.431441 -0.308558
v 0.471436 -1.449368 -0.292833
v 0.583694 -2.095914 -0.039236
v 0.728583 -2.095914 -0.141251
v 0.769630 -2.095914 -0.078378
v 0.581940 -2.095914 -0.105192
v 0.694560 -2.095914 -0.188251
v 0.614378 -2.095914 -0.179699
v 0.379345 1.050231 -0.309320
v 0.358216 1.055983 0.223776
v 0.000000 1.047154 0.229814
v 0.000000 1.050231 -0.309320
v 0.519701 1.038336 0.087931
v 0.231180 0.309661 -0.095848
v 0.201183 0.213244 0.261903
v 0.000000 0.183338 0.271563
v 0.000000 0.305353 -0.171872
v 0.322432 0.317083 0.076029
v 0.447907 -1.106895 0.089675
v 0.380684 -1.132056 -0.079878
v 0.588499 -1.087691 -0.132775
v 0.578023 -1.087089 -0.033924
v 0.535813 -1.073560 -0.199500
v 0.419804 -1.099573 -0.186858
v 0.653378 -1.298215 -0.029306
v 0.481898 -1.277828 0.022737
v 0.452051 -1.294677 -0.238744
v 0.602389 -1.270878 -0.254830
v 0.390888 -1.339279 -0.080107
v 0.667121 -1.297682 -0.147465
v 0.000000 1.264904 0.078318
v 0.179855 1.302508 -0.073966
v 0.000000 1.291753 -0.234330
v 0.096514 1.291300 -0.200386
v 0.121647 1.267865 0.062824
v 0.000000 1.363417 -0.185256
v 0.000000 1.332262 0.092265
v 0.107994 1.345545 0.037075
v 0.167352 1.367494 -0.065271
v 0.089189 1.363078 -0.159859
v 0.197029 1.243915 -0.286433
v 0.070656 -0.218215 0.203035
v 0.156200 0.082069 -0.189528
v 0.190452 1.208306 0.119968
v 0.132847 0.530045 0.270132
v 0.162649 0.886464 0.320889
v 0.126657 0.480415 -0.121036
v 0.188234 0.867577 -0.320837
v 0.033908 -0.313145 0.024748
v 0.107887 -0.104901 -0.256713
v 0.056500 -0.209748 -0.208338
v 0.179108 1.051569 0.226795
v 0.189672 1.050231 -0.309320
v 0.115590 0.307507 -0.133860
v 0.100591 0.198291 0.266733
v 0.048257 1.291526 -0.217358
v 0.060824 1.266384 0.070571
v 0.044595 1.363248 -0.172557
v 0.053997 1.338903 0.064670
v 0.583694 -2.368751 -0.039236
v 0.728583 -2.368751 -0.141251
v 0.769630 -2.368751 -0.078378
v 0.554469 -2.368751 -0.105192
v 0.694560 -2.368751 -0.188251
v 0.581947 -2.368751 -0.179699
v 0.663452 -2.304713 0.432132
v 0.909887 -2.305085 0.348657
v 0.647014 -2.370599 0.444019
v 0.915176 -2.370599 0.348252
v 0.769630 -2.210125 -0.078378
v 0.583694 -2.210125 -0.039236
v 0.614378 -2.267620 -0.249971
v 0.694560 -2.267620 -0.258523
v 0.581940 -2.210125 -0.105192
v 0.728583 -2.210125 -0.141251
v 0.928993 -2.331736 0.354678
v 0.656571 -2.331519 0.447941
v 0.673060 -2.229377 0.196448
v 0.816536 -2.222109 0.135139
v 0.648189 -2.369675 0.202391
v 0.819180 -2.369675 0.134937
v 0.826088 -2.270930 0.138150
v 0.669619 -2.270822 0.204352
v -0.141312 -0.190456 0.208459
v -0.380905 1.207780 0.123744
v -0.312400 0.070592 -0.121309
v -0.394058 1.243915 -0.286433
v -0.376467 0.877518 -0.309597
v -0.253313 0.486211 -0.121915
v -0.325298 0.885948 0.299918
v -0.265694 0.530045 0.270132
v -0.354619 0.066140 0.092437
v -0.506713 1.261128 -0.001818
v -0.316839 0.493343 0.073922
v -0.455243 0.902238 0.033626
v -0.067816 -0.311828 0.014256
v -0.215774 -0.098594 -0.239859
v -0.113001 -0.225594 -0.205675
v -0.302570 -0.564887 0.239591
v -0.549756 -0.475062 -0.093834
v -0.535019 -0.477598 0.083114
v -0.176598 -0.599199 0.010471
v -0.467502 -0.494911 -0.216281
v -0.260420 -0.566433 -0.192839
v -0.456688 -1.138943 0.073392
v -0.590956 -1.134736 -0.135439
v -0.580810 -1.140970 -0.041490
v -0.390788 -1.160612 -0.083033
v -0.542146 -1.132297 -0.198804
v -0.433801 -1.146945 -0.186613
v -0.508430 -1.538977 0.001035
v -0.745018 -1.498961 -0.160371
v -0.729402 -1.502430 -0.013034
v -0.392628 -1.539801 -0.072907
v -0.663430 -1.431441 -0.308558
v -0.471436 -1.449368 -0.292833
v -0.583694 -2.095914 -0.039236
v -0.728583 -2.095914 -0.141251
v -0.769630 -2.095914 -0.078378
v -0.581940 -2.095914 -0.105192
v -0.694560 -2.095914 -0.188251
v -0.614378 -2.095914 -0.179699
v -0.379345 1.050231 -0.309320
v -0.358216 1.055983 0.223776
v -0.519701 1.038336 0.087931
v -0.231180 0.309661 -0.095848
v -0.201183 0.213244 0.261903
v -0.322432 0.317083 0.076029
v -0.447907 -1.106895 0.089675
v -0.380684 -1.132056 -0.079878
v -0.588499 -1.087691 -0.132775
v -0.578023 -1.087089 -0.033924
v -0.535813 -1.073560 -0.199500
v -0.419804 -1.099573 -0.186858
v -0.653378 -1.298215 -0.029306
v -0.481898 -1.277828 0.022737
v -0.452051 -1.294677 -0.238744
v -0.602389 -1.270878 -0.254830
v -0.390888 -1.339279 -0.080107
v -0.667121 -1.297682 -0.147465
v -0.179855 1.302508 -0.073966
v -0.096514 1.291300 -0.200386
v -0.121647 1.267865 0.062824
v -0.107994 1.345545 0.037075
v -0.167352 1.367494 -0.065271
v -0.089189 1.363078 -0.159859
v -0.197029 1.243915 -0.286433
v -0.070656 -0.218215 0.203035
v -0.156200 0.082069 -0.189528
v -0.190452 1.208306 0.119968
v -0.132847 0.530045 0.270132
v -0.162649 0.886464 0.320889
v -0.126657 0.480415 -0.121036
v -0.188234 0.867577 -0.320837
v -0.033908 -0.313145 0.024748
v -0.107887 -0.104901 -0.256713
v -0.056500 -0.209748 -0.208338
v -0.179108 1.051569 0.226795
v -0.189672 1.050231 -0.309320
v -0.115590 0.307507 -0.133860
v -0.100591 0.198291 0.266733
v -0.048257 1.291526 -0.217358
v -0.060824 1.266384 0.070571
v -0.044595 1.363248 -0.172557
v -0.053997 1.338903 0.064670
v -0.583694 -2.368751 -0.039236
v -0.728583 -2.368751 -0.141251
v -0.769630 -2.368751 -0.078378
v -0.554469 -2.368751 -0.105192
v -0.694560 -2.368751 -0.188251
v -0.581947 -2.368751 -0.179699
v -0.663452 -2.304713 0.432132
v -0.909887 -2.305085 0.348657
v -0.647014 -2.370599 0.444019
v -0.915176 -2.370599 0.348252
v -0.769630 -2.210125 -0.078378
v -0.583694 -2.210125 -0.039236
v -0.614378 -2.267620 -0.249971
v -0.694560 -2.267620 -0.258523
v -0.581940 -2.210125 -0.105192
v -0.728583 -2.210125 -0.141251
v -0.928993 -2.331736 0.354678
v -0.656571 -2.331519 0.447941
v -0.673060 -2.229377 0.196448
v -0.816536 -2.222109 0.135139
v -0.648189 -2.369675 0.202391
v -0.819180 -2.369675 0.134937
v -0.826088 -2.270930 0.138150
v -0.669619 -2.270822 0.204352
vn -0.0000 0.1173 -0.9931
vn 0.6074 0.3464 0.7149
vn -0.0077 0.5694 0.8220
vn 0.0209 -0.0039 0.9998
vn 0.0694 -0.1716 0.9827
vn 0.9129 -0.1140 0.3919
vn 0.9030 -0.2288 0.3637
vn 0.1530 -0.0519 -0.9869
vn 0.0520 -0.4549 -0.8890
vn 0.9075 -0.3588 -0.2184
vn 0.9202 -0.0738 -0.3844
vn -0.1791 -0.8977 -0.4026
vn 0.0868 -0.3849 -0.9189
vn 0.2639 -0.8805 0.3939
vn 0.2939 0.3452 -0.8913
vn 0.4120 0.1746 0.8943
vn -0.8108 -0.3104 0.4962
vn -0.8611 -0.3564 -0.3627
vn 0.9324 0.3566 -0.0592
vn 0.6419 0.2949 -0.7078
vn -0.1131 -0.1100 -0.9875
vn -0.8331 -0.3865 0.3957
vn 0.9934 0.0407 0.1074
vn 0.7908 0.0770 -0.6072
vn -0.8778 -0.2633 -0.4001
vn 0.6841 -0.1081 0.7213
vn -0.1048 -0.0289 -0.9941
vn 0.1651 0.0249 0.9860
vn -0.1238 0.2927 -0.9482
vn -0.6374 -0.0632 0.7679
vn 0.9291 0.3536 0.1081
vn 0.8535 0.3911 -0.3443
vn -0.9368 -0.0095 -0.3498
vn 0.9925 0.0245 -0.1197
vn 0.8521 -0.0477 -0.5212
vn -0.8710 -0.2683 -0.4115
vn 0.1361 -0.0770 0.9877
vn -0.0753 -0.1845 -0.9800
vn -0.7465 -0.2184 0.6285
vn 0.9429 -0.1031 -0.3169
vn 0.0532 0.5326 0.8447
vn 0.7912 -0.2107 0.5741
vn 0.0289 0.0328 -0.9990
vn 0.9215 0.2192 -0.3206
vn 0.3598 0.2513 -0.8985
vn 0.7087 -0.0697 0.7021
vn 0.0369 -0.1618 0.9861
vn -0.0988 -0.0406 -0.9943
vn 0.6238 -0.0782 0.7776
vn -0.8755 -0.2666 -0.4030
vn 0.8101 0.0836 -0.5804
vn 0.9943 0.0549 0.0913
vn -0.8151 -0.3655 0.4495
vn -0.9296 0.0033 -0.3686
vn 0.7770 0.4507 -0.4395
vn 0.9009 0.4185 0.1148
vn -0.8244 -0.1478 0.5463
vn -0.1491 0.3134 -0.9378
vn 0.4940 0.0503 0.8680
vn 0.8558 0.2132 0.4712
vn 0.0776 0.9276 0.3655
vn 0.1366 0.9817 -0.1330
vn 0.0101 0.6146 0.7888
vn 0.0413 0.8089 -0.5864
vn 0.7552 0.3161 -0.5742
vn 0.2595 0.5336 -0.8049
vn 0.2709 0.2337 0.9338
vn 0.2965 -0.0404 0.9542
vn 0.2642 0.5078 -0.8200
vn 0.0322 0.8909 -0.4530
vn 0.0087 0.6975 0.7165
vn 0.0327 -0.1448 0.9889
vn 0.3546 0.3176 -0.8794
vn 0.0272 0.0908 -0.9955
vn 0.0576 0.4454 0.8935
vn 0.3055 0.1612 -0.9385
vn 0.2615 -0.8663 0.4256
vn 0.0706 -0.5221 -0.8499
vn -0.1794 -0.8880 -0.4234
vn 0.0526 -0.4741 -0.8789
vn 0.1433 0.1790 -0.9734
vn 0.0701 -0.1208 0.9902
vn 0.0220 -0.0212 0.9995
vn -0.0076 0.5574 0.8302
vn 0.0999 0.9441 0.3141
vn -0.0731 -0.5612 -0.8245
vn -0.9701 0.0840 0.2278
vn 0.8373 -0.0000 -0.5467
vn 0.9310 -0.0953 -0.3523
vn -0.9455 0.1383 -0.2946
vn 0.3220 -0.2188 0.9211
vn -0.9757 0.2192 -0.0008
vn -0.0014 -1.0000 -0.0038
vn 0.9008 0.3051 -0.3091
vn 0.8967 -0.1049 -0.4300
vn -0.9890 0.1479 -0.0048
vn 0.2933 0.4181 0.8597
vn -0.9509 0.0739 -0.3007
vn 0.9062 0.1009 -0.4107
vn -0.9996 -0.0000 0.0266
vn -0.0982 0.3769 -0.9210
vn -0.9333 0.0388 0.3570
vn 0.9699 -0.0230 -0.2425
vn 0.9759 0.0533 -0.2114
vn -0.0011 -1.0000 -0.0038
vn -0.9495 0.0767 0.3041
vn 0.1235 0.8749 0.4683
vn -0.0000 -1.0000 -0.0000
vn -0.0796 0.9914 0.1042
vn -0.6074 0.3464 0.7149
vn 0.0077 0.5694 0.8220
vn -0.0209 -0.0039 0.9998
vn -0.0694 -0.1716 0.9827
vn -0.9129 -0.1140 0.3919
vn -0.9030 -0.2288 0.3637
vn -0.1530 -0.0519 -0.9869
vn -0.0520 -0.4549 -0.8890
vn -0.9075 -0.3588 -0.2184
vn -0.9202 -0.0738 -0.3844
vn 0.1791 -0.8977 -0.4026
vn -0.0868 -0.3849 -0.9189
vn -0.2639 -0.8805 0.3939
vn -0.2939 0.3452 -0.8913
vn -0.4120 0.1746 0.8943
vn 0.8108 -0.3104 0.4962
vn 0.8611 -0.3564 -0.3627
vn -0.9324 0.3566 -0.0592
vn -0.6419 0.2949 -0.7078
vn 0.1131 -0.1100 -0.9875
vn 0.8331 -0.3865 0.3957
vn -0.9934 0.0407 0.1074
vn -0.7908 0.0770 -0.6072
vn 0.8778 -0.2633 -0.4001
vn -0.6841 -0.1081 0.7213
vn 0.1048 -0.0289 -0.9941
vn -0.1651 0.0249 0.9860
vn 0.1238 0.2927 -0.9482
vn 0.6374 -0.0632 0.7679
vn -0.9291 0.3536 0.1081
vn -0.8535 0.3911 -0.3443
vn 0.9368 -0.0095 -0.3498
vn -0.9925 0.0245 -0.1197
vn -0.8521 -0.0477 -0.5212
vn 0.8710 -0.2683 -0.4115
vn -0.1361 -0.0770 0.9877
vn 0.0753 -0.1845 -0.9800
vn 0.7465 -0.2184 0.6285
vn -0.9429 -0.1031 -0.3169
vn -0.0532 0.5326 0.8447
vn -0.7912 -0.2107 0.5741
vn -0.0289 0.0328 -0.9990
vn -0.9215 0.2192 -0.3206
vn -0.3598 0.2513 -0.8985
vn -0.7087 -0.0697 0.7021
vn -0.0369 -0.1618 0.9861
vn 0.0988 -0.0406 -0.9943
vn -0.6238 -0.0782 0.7776
vn 0.8755 -0.2666 -0.4030
vn -0.8101 0.0836 -0.5804
vn -0.9943 0.0549 0.0913
vn 0.8151 -0.3655 0.4495
vn 0.9296 0.0033 -0.3686
vn -0.7770 0.4507 -0.4395
vn -0.9009 0.4185 0.1148
vn 0.8244 -0.1478 0.5463
vn 0.1491 0.3134 -0.9378
vn -0.4940 0.0503 0.8680
vn -0.8558 0.2132 0.4712
vn -0.0776 0.9276 0.3655
vn -0.1366 0.9817 -0.1330
vn -0.0101 0.6146 0.7888
vn -0.0413 0.8089 -0.5864
vn -0.7552 0.3161 -0.5742
vn -0.2595 0.5336 -0.8049
vn -0.2709 0.2337 0.9338
vn -0.2965 -0.0404 0.9542
vn -0.2642 0.5078 -0.8200
vn -0.0322 0.8909 -0.4530
vn -0.0087 0.6975 0.7165
vn -0.0327 -0.1448 0.9889
vn -0.3546 0.3176 -0.8794
vn -0.0272 0.0908 -0.9955
vn -0.0576 0.4454 0.8935
vn -0.3055 0.1612 -0.9385
vn -0.2615 -0.8663 0.4256
vn -0.0706 -0.5221 -0.8499
vn 0.1794 -0.8880 -0.4234
vn -0.0526 -0.4741 -0.8789
vn -0.1433 0.1790 -0.9734
vn -0.0701 -0.1208 0.9902
vn -0.0220 -0.0212 0.9995
vn 0.0076 0.5574 0.8302
vn -0.0999 0.9441 0.3141
vn 0.0731 -0.5612 -0.8245
vn 0.9701 0.0840 0.2278
vn -0.8374 -0.0000 -0.5467
vn -0.9310 -0.0953 -0.3523
vn 0.9455 0.1383 -0.2946
vn -0.3220 -0.2188 0.9211
vn 0.9757 0.2192 -0.0008
vn 0.0014 -1.0000 -0.0038
vn -0.9008 0.3051 -0.3091
vn -0.8967 -0.1049 -0.4300
vn 0.9890 0.1479 -0.0048
vn -0.2933 0.4181 0.8597
vn 0.9509 0.0739 -0.3007
vn -0.9062 0.1009 -0.4107
vn -0.8373 -0.0000 -0.5467
vn 0.9996 -0.0000 0.0266
vn 0.0982 0.3769 -0.9210
vn 0.9333 0.0388 0.3570
vn -0.9699 -0.0230 -0.2425
vn -0.9759 0.0533 -0.2114
vn 0.0011 -1.0000 -0.0038
vn 0.9495 0.0767 0.3041
vn -0.1235 0.8749 0.4683
vn 0.0796 0.9914 0.1042
vt 0.583216 0.437500
vt 0.625000 0.437500
vt 0.625000 0.500000
vt 0.583216 0.500000
vt 0.583216 0.625000
vt 0.625000 0.625000
vt 0.625000 0.750000
vt 0.583216 0.750000
vt 0.583216 0.812500
vt 0.625000 0.812500
vt 0.625000 0.875000
vt 0.583216 0.875000
vt 0.422699 0.812500
vt 0.458333 0.812500
vt 0.458333 0.875000
vt 0.422699 0.875000
vt 0.541667 0.812500
vt 0.541667 0.875000
vt 0.422699 0.603055
vt 0.458333 0.625000
vt 0.458333 0.750000
vt 0.422699 0.750000
vt 0.541667 0.625000
vt 0.541667 0.750000
vt 0.422698 0.437500
vt 0.458333 0.437500
vt 0.458333 0.500000
vt 0.422699 0.500000
vt 0.541667 0.437500
vt 0.541667 0.500000
vt 0.375000 0.770968
vt 0.375000 0.544119
vt 0.375000 0.624903
vt 0.375000 0.750000
vt 0.375000 0.437500
vt 0.375000 0.500000
vt 0.375000 0.812500
vt 0.375000 0.875000
vt 0.375000 0.791936
vt 0.375000 0.573680
vt 0.375000 0.750000
vt 0.375000 0.573680
vt 0.375000 0.624903
vt 0.375000 0.573680
vt 0.375000 0.500000
vt 0.730805 0.677568
vt 0.708007 0.625000
vt 0.724544 0.606447
vt 0.687500 0.750000
vt 0.740403 0.699697
vt 0.750000 0.721826
vt 0.750000 0.750000
vt 0.737272 0.592167
vt 0.687500 0.500000
vt 0.750000 0.500000
vt 0.750000 0.577887
vt 0.737272 0.592167
vt 0.375000 0.375000
vt 0.422699 0.375000
vt 0.541667 0.375000
vt 0.583216 0.375000
vt 0.375000 0.375000
vt 0.375000 0.463334
vt 0.458333 0.375000
vt 0.625000 0.375000
vt 0.375000 0.573680
vt 0.375000 0.500000
vt 0.375000 0.573680
vt 0.375000 0.750000
vt 0.000000 0.000000
s 0
f 95/1/1 83/2/1 4/3/1 51/4/1
f 55/5/2 18/6/2 2/7/2 52/8/2
f 94/9/3 86/10/3 8/11/3 53/12/3
f 97/13/4 87/14/4 14/15/4 58/16/4
f 87/14/5 88/17/5 13/18/5 14/15/5
f 60/19/6 19/20/6 12/21/6 57/22/6
f 19/20/7 20/23/7 11/24/7 12/21/7
f 96/25/8 89/26/8 10/27/8 56/28/8
f 89/26/9 90/29/9 9/30/9 10/27/9
f 10/27/10 9/30/10 20/23/10 19/20/10
f 56/28/11 10/27/11 19/20/11 60/19/11
f 91/31/12 93/32/12 25/33/12 22/34/12
f 93/32/13 92/35/13 23/36/13 25/33/13
f 84/37/14 7/38/14 21/39/14 91/31/14
f 85/35/15 3/36/15 23/36/15 92/35/15
f 17/40/16 1/34/16 27/34/16 29/40/16
f 1/34/17 22/34/17 30/34/17 27/34/17
f 22/34/18 25/33/18 32/33/18 30/34/18
f 3/36/19 17/40/19 29/40/19 28/36/19
f 23/36/20 3/36/20 28/36/20 31/36/20
f 25/33/21 23/36/21 31/36/21 32/33/21
f 61/41/22 62/34/22 36/34/22 33/34/22
f 63/36/23 64/42/23 35/40/23 34/36/23
f 65/36/24 63/36/24 34/36/24 37/36/24
f 62/34/25 66/43/25 38/33/25 36/34/25
f 64/42/26 61/41/26 33/34/26 35/40/26
f 66/43/27 65/36/27 37/36/27 38/33/27
f 67/44/28 68/41/28 39/34/28 41/40/28
f 69/33/29 70/36/29 43/36/29 44/33/29
f 68/41/30 71/34/30 42/34/30 39/34/30
f 72/45/31 67/44/31 41/40/31 40/36/31
f 70/36/32 72/45/32 40/36/32 43/36/32
f 71/34/33 69/33/33 44/33/33 42/34/33
f 40/36/34 41/40/34 47/40/34 46/36/34
f 43/36/35 40/36/35 46/36/35 49/36/35
f 42/34/36 44/33/36 50/33/36 48/34/36
f 41/40/37 39/34/37 45/34/37 47/40/37
f 44/33/38 43/36/38 49/36/38 50/33/38
f 39/34/39 42/34/39 48/34/39 45/34/39
f 9/30/40 51/4/40 4/3/40 18/6/40 55/5/40 20/23/40
f 88/17/41 94/9/41 53/12/41 13/18/41
f 20/23/42 55/5/42 52/8/42 11/24/42
f 90/29/43 95/1/43 51/4/43 9/30/43
f 3/36/44 56/28/44 60/19/44 17/40/44
f 85/35/45 96/25/45 56/28/45 3/36/45
f 17/40/46 60/19/46 57/22/46 1/34/46
f 84/37/47 97/13/47 58/16/47 7/38/47
f 32/33/48 31/36/48 65/36/48 66/43/48
f 29/40/49 27/34/49 61/41/49 64/42/49
f 30/34/50 32/33/50 66/43/50 62/34/50
f 31/36/51 28/36/51 63/36/51 65/36/51
f 28/36/52 29/40/52 64/42/52 63/36/52
f 27/34/53 30/34/53 62/34/53 61/41/53
f 36/34/54 38/33/54 69/33/54 71/34/54
f 37/36/55 34/36/55 72/45/55 70/36/55
f 34/36/56 35/40/56 67/44/56 72/45/56
f 33/34/57 36/34/57 71/34/57 68/41/57
f 38/33/58 37/36/58 70/36/58 69/33/58
f 35/40/59 33/34/59 68/41/59 67/44/59
f 77/46/60 74/47/60 81/47/60 80/46/60
f 18/6/61 74/47/61 77/46/61 2/7/61
f 4/3/62 76/48/62 74/47/62 18/6/62
f 86/49/63 99/50/63 73/51/63 8/52/63
f 98/53/64 83/54/64 6/55/64 75/56/64
f 74/47/65 76/48/65 82/48/65 81/47/65
f 98/53/66 75/56/66 78/56/66 100/57/66
f 99/50/67 77/46/67 80/46/67 101/50/67
f 73/51/68 99/50/68 101/50/68 79/51/68
f 76/48/69 98/53/69 100/57/69 82/48/69
f 76/48/70 4/3/70 83/54/70 98/53/70
f 2/7/71 77/46/71 99/50/71 86/49/71
f 1/34/72 57/22/72 97/13/72 84/37/72
f 5/58/73 59/59/73 96/25/73 85/35/73
f 15/60/74 54/61/74 95/1/74 90/29/74
f 11/24/75 52/8/75 94/9/75 88/17/75
f 5/58/76 85/35/76 92/35/76 24/62/76
f 1/34/77 84/37/77 91/31/77 22/34/77
f 26/63/78 24/62/78 92/35/78 93/32/78
f 21/39/79 26/63/79 93/32/79 91/31/79
f 16/64/80 15/60/80 90/29/80 89/26/80
f 59/59/81 16/64/81 89/26/81 96/25/81
f 12/21/82 11/24/82 88/17/82 87/14/82
f 57/22/83 12/21/83 87/14/83 97/13/83
f 52/8/84 2/7/84 86/10/84 94/9/84
f 54/61/1 6/65/1 83/2/1 95/1/1
f 121/66/85 120/41/85 108/34/85 109/40/85
f 114/33/86 115/36/86 106/36/86 107/33/86
f 113/34/87 116/34/87 105/34/87 102/34/87
f 117/67/88 112/44/88 104/40/88 103/36/88
f 115/36/89 117/67/89 103/36/89 106/36/89
f 116/34/90 114/33/90 107/33/90 105/34/90
f 118/68/91 119/34/91 110/34/91 111/40/91
f 125/69/92 122/34/92 110/34/92 119/34/92
f 122/70/93 123/70/93 111/70/93 110/70/93
f 124/44/94 121/66/94 109/40/94 118/68/94
f 123/44/95 124/44/95 118/68/95 111/40/95
f 120/41/96 125/69/96 119/34/96 108/34/96
f 109/40/97 108/34/97 119/34/97 118/68/97
f 48/34/98 50/33/98 114/33/98 116/34/98
f 49/36/99 46/36/99 117/67/99 115/36/99
f 46/36/88 47/40/88 112/44/88 117/67/88
f 45/34/100 48/34/100 116/34/100 113/34/100
f 50/33/101 49/36/101 115/36/101 114/33/101
f 45/34/102 113/34/102 125/69/102 120/41/102
f 104/40/103 112/44/103 124/44/103 123/44/103
f 112/44/104 47/40/104 121/66/104 124/44/104
f 102/70/105 104/70/105 123/70/105 122/70/105
f 113/34/106 102/34/106 122/34/106 125/69/106
f 47/40/107 45/34/107 120/41/107 121/66/107
f 103/36/108 104/70/108 102/34/108 105/34/108 107/33/108 106/36/108
f 80/46/109 81/47/109 82/48/109 100/57/109 78/56/109 79/51/109 101/50/109
f 201/1/1 165/4/1 129/3/1 189/2/1
f 167/5/110 166/8/110 127/7/110 135/6/110
f 200/9/111 53/12/111 8/11/111 192/10/111
f 203/13/112 58/16/112 14/15/112 193/14/112
f 193/14/113 14/15/113 13/18/113 194/17/113
f 170/19/114 169/22/114 133/21/114 136/20/114
f 136/20/115 133/21/115 132/24/115 137/23/115
f 202/25/116 168/28/116 131/27/116 195/26/116
f 195/26/117 131/27/117 130/30/117 196/29/117
f 131/27/118 136/20/118 137/23/118 130/30/118
f 168/28/119 170/19/119 136/20/119 131/27/119
f 197/31/120 138/34/120 140/33/120 199/32/120
f 199/32/121 140/33/121 139/36/121 198/35/121
f 190/37/122 197/31/122 21/39/122 7/38/122
f 191/35/123 198/35/123 139/36/123 128/36/123
f 134/40/124 143/40/124 141/34/124 126/34/124
f 126/34/125 141/34/125 144/34/125 138/34/125
f 138/34/126 144/34/126 146/33/126 140/33/126
f 128/36/127 142/36/127 143/40/127 134/40/127
f 139/36/128 145/36/128 142/36/128 128/36/128
f 140/33/129 146/33/129 145/36/129 139/36/129
f 171/41/130 147/34/130 150/34/130 172/34/130
f 173/36/131 148/36/131 149/40/131 174/42/131
f 175/36/132 151/36/132 148/36/132 173/36/132
f 172/34/133 150/34/133 152/33/133 176/43/133
f 174/42/134 149/40/134 147/34/134 171/41/134
f 176/43/135 152/33/135 151/36/135 175/36/135
f 177/44/136 155/40/136 153/34/136 178/41/136
f 179/33/137 158/33/137 157/36/137 180/36/137
f 178/41/138 153/34/138 156/34/138 181/34/138
f 182/45/139 154/36/139 155/40/139 177/44/139
f 180/36/140 157/36/140 154/36/140 182/45/140
f 181/34/141 156/34/141 158/33/141 179/33/141
f 154/36/142 160/36/142 161/40/142 155/40/142
f 157/36/143 163/36/143 160/36/143 154/36/143
f 156/34/144 162/34/144 164/33/144 158/33/144
f 155/40/145 161/40/145 159/34/145 153/34/145
f 158/33/146 164/33/146 163/36/146 157/36/146
f 153/34/147 159/34/147 162/34/147 156/34/147
f 130/30/148 137/23/148 167/5/148 135/6/148 129/3/148 165/4/148
f 194/17/149 13/18/149 53/12/149 200/9/149
f 137/23/150 132/24/150 166/8/150 167/5/150
f 196/29/151 130/30/151 165/4/151 201/1/151
f 128/36/152 134/40/152 170/19/152 168/28/152
f 191/35/153 128/36/153 168/28/153 202/25/153
f 134/40/154 126/34/154 169/22/154 170/19/154
f 190/37/155 7/38/155 58/16/155 203/13/155
f 146/33/156 176/43/156 175/36/156 145/36/156
f 143/40/157 174/42/157 171/41/157 141/34/157
f 144/34/158 172/34/158 176/43/158 146/33/158
f 145/36/159 175/36/159 173/36/159 142/36/159
f 142/36/160 173/36/160 174/42/160 143/40/160
f 141/34/161 171/41/161 172/34/161 144/34/161
f 150/34/162 181/34/162 179/33/162 152/33/162
f 151/36/163 180/36/163 182/45/163 148/36/163
f 148/36/164 182/45/164 177/44/164 149/40/164
f 147/34/165 178/41/165 181/34/165 150/34/165
f 152/33/166 179/33/166 180/36/166 151/36/166
f 149/40/167 177/44/167 178/41/167 147/34/167
f 185/46/168 186/46/168 187/47/168 183/47/168
f 135/6/169 127/7/169 185/46/169 183/47/169
f 129/3/170 135/6/170 183/47/170 184/48/170
f 192/49/171 8/52/171 73/51/171 205/50/171
f 204/53/172 75/56/172 6/55/172 189/54/172
f 183/47/173 187/47/173 188/48/173 184/48/173
f 204/53/174 206/57/174 78/56/174 75/56/174
f 205/50/175 207/50/175 186/46/175 185/46/175
f 73/51/176 79/51/176 207/50/176 205/50/176
f 184/48/177 188/48/177 206/57/177 204/53/177
f 184/48/178 204/53/178 189/54/178 129/3/178
f 127/7/179 192/49/179 205/50/179 185/46/179
f 126/34/180 190/37/180 203/13/180 169/22/180
f 5/58/181 191/35/181 202/25/181 59/59/181
f 15/60/182 196/29/182 201/1/182 54/61/182
f 132/24/183 194/17/183 200/9/183 166/8/183
f 5/58/184 24/62/184 198/35/184 191/35/184
f 126/34/185 138/34/185 197/31/185 190/37/185
f 26/63/186 199/32/186 198/35/186 24/62/186
f 21/39/187 197/31/187 199/32/187 26/63/187
f 16/64/188 195/26/188 196/29/188 15/60/188
f 59/59/189 202/25/189 195/26/189 16/64/189
f 133/21/190 193/14/190 194/17/190 132/24/190
f 169/22/191 203/13/191 193/14/191 133/21/191
f 166/8/192 200/9/192 192/10/192 127/7/192
f 54/61/1 201/1/1 189/2/1 6/65/1
f 227/66/193 215/40/193 214/34/193 226/41/193
f 220/33/194 213/33/194 212/36/194 221/36/194
f 219/34/195 208/34/195 211/34/195 222/34/195
f 223/67/196 209/36/196 210/40/196 218/44/196
f 221/36/197 212/36/197 209/36/197 223/67/197
f 222/34/198 211/34/198 213/33/198 220/33/198
f 224/68/199 217/40/199 216/34/199 225/34/199
f 231/69/200 225/34/200 216/34/200 228/34/200
f 228/70/201 216/70/201 217/70/201 229/70/201
f 230/44/202 224/68/202 215/40/202 227/66/202
f 229/44/203 217/40/203 224/68/203 230/44/203
f 226/41/204 214/34/204 225/34/204 231/69/204
f 215/40/205 224/68/205 225/34/205 214/34/205
f 162/34/206 222/34/206 220/33/206 164/33/206
f 163/36/207 221/36/207 223/67/207 160/36/207
f 160/36/208 223/67/208 218/44/208 161/40/208
f 159/34/209 219/34/209 222/34/209 162/34/209
f 164/33/210 220/33/210 221/36/210 163/36/210
f 159/34/211 226/41/211 231/69/211 219/34/211
f 210/40/212 229/44/212 230/44/212 218/44/212
f 218/44/213 230/44/213 227/66/213 161/40/213
f 208/70/214 228/70/214 229/70/214 210/70/214
f 219/34/215 231/69/215 228/34/215 208/34/215
f 161/40/216 227/66/216 226/41/216 159/34/216
f 209/36/108 212/36/108 213/33/108 211/34/108 208/34/108 210/70/108
f 186/46/217 207/50/217 79/51/217 78/56/217 206/57/217 188/48/217 187/47/217
